<?xml version="1.0" standalone="no"?>
<!DOCTYPE svg PUBLIC "-//W3C//DTD SVG 20010904//EN"
 "http://www.w3.org/TR/2001/REC-SVG-20010904/DTD/svg10.dtd">
<svg version="1.0" xmlns="http://www.w3.org/2000/svg"
 width="1749.000000pt" height="943.000000pt" viewBox="0 0 1749.000000 943.000000"
 preserveAspectRatio="xMidYMid meet">
<metadata>
Created by potrace 1.12, written by Peter Selinger 2001-2015
</metadata>
<g transform="translate(0.000000,943.000000) scale(0.100000,-0.100000)"
fill="#000000" stroke="none">
<path d="M5216 5837 l-439 -21 7 -306 c4 -168 10 -315 13 -328 4 -16 10 -21
21 -17 9 3 258 16 554 28 473 19 540 20 548 7 13 -20 11 143 -3 430 l-12 225
-125 1 c-69 1 -322 -8 -564 -19z m666 -84 c1 -78 2 -82 8 -38 4 28 6 -10 4
-90 -2 -86 0 -125 5 -100 5 25 7 -9 5 -90 -2 -91 -1 -121 6 -100 9 27 9 27 5
-10 -3 -22 -5 -54 -5 -70 l0 -31 -542 -22 c-298 -12 -543 -20 -546 -18 -4 5
-25 596 -20 601 3 4 905 52 1011 54 l67 1 2 -87z"/>
</g>
</svg>
