<?xml version="1.0" encoding="utf-8"?>
<!-- Generator: Adobe Illustrator 16.0.3, SVG Export Plug-In . SVG Version: 6.00 Build 0)  -->
<!DOCTYPE svg PUBLIC "-//W3C//DTD SVG 1.1//EN" "http://www.w3.org/Graphics/SVG/1.1/DTD/svg11.dtd">
<svg version="1.1" id="Layer_1" xmlns="http://www.w3.org/2000/svg" xmlns:xlink="http://www.w3.org/1999/xlink" x="0px" y="0px"
	 width="792px" height="612px" viewBox="0 0 792 612" enable-background="new 0 0 792 612" xml:space="preserve">
<g>
	<ellipse fill="#BCBEC0" cx="113.553" cy="32.619" rx="10.668" ry="26.257"/>
	<rect x="19.428" y="6.361" fill="#F7941E" width="92.813" height="52.515"/>
	<ellipse fill="#F7941E" cx="112.241" cy="32.619" rx="10.669" ry="26.257"/>
	<rect x="21.618" y="45.233" fill="#414042" width="71.052" height="13.644"/>
	<ellipse fill="#BCBEC0" cx="19.428" cy="32.619" rx="10.668" ry="26.257"/>
	<path fill="#414042" d="M98.979,45.442c0.217,2.207-0.578,13.466-6.348,13.435c-1.547-0.008-2.872-3.778-2.872-7.246
		c0-3.466-0.604-6.398,2.91-6.398C93.212,45.233,98.951,45.179,98.979,45.442z"/>
	<ellipse fill="#939598" cx="19.428" cy="32.426" rx="2.054" ry="6.242"/>
	<rect x="16.665" y="26.183" fill="#939598" width="2.763" height="12.485"/>
	<ellipse fill="#A7A9AC" cx="16.666" cy="32.426" rx="2.054" ry="6.242"/>
</g>
</svg>
