<?xml version="1.0" encoding="utf-8"?>
<!-- Generator: Adobe Illustrator 16.0.3, SVG Export Plug-In . SVG Version: 6.00 Build 0)  -->
<!DOCTYPE svg PUBLIC "-//W3C//DTD SVG 1.1//EN" "http://www.w3.org/Graphics/SVG/1.1/DTD/svg11.dtd">
<svg version="1.1" id="Layer_1" xmlns="http://www.w3.org/2000/svg" xmlns:xlink="http://www.w3.org/1999/xlink" x="0px" y="0px"
	 width="792px" height="612px" viewBox="0 0 792 612" enable-background="new 0 0 792 612" xml:space="preserve">
<g>
	<path fill="#6D6E71" d="M142.207,91.166c0,7.928-6.652,14.354-14.855,14.354H24.191c-8.206,0-14.855-6.426-14.855-14.354V22.99
		c0-7.927,6.649-14.354,14.855-14.354h103.16c8.203,0,14.855,6.427,14.855,14.354V91.166z"/>
	<rect x="30.309" y="7.205" fill="#A7A9AC" width="16.101" height="1.641"/>
	<rect x="50.297" y="7.205" fill="#A7A9AC" width="9.896" height="1.641"/>
	<path fill="#808285" d="M146.938,92.258c0,7.324-6.407,13.262-14.306,13.262H31.682c-7.903,0-14.31-5.938-14.31-13.262V21.896
		c0-7.323,6.406-13.26,14.31-13.26h100.95c7.898,0,14.306,5.937,14.306,13.26V92.258z"/>
	<circle fill="#6D6E71" cx="80.581" cy="59.018" r="29.513"/>
	<circle cx="84.418" cy="61.238" r="29.173"/>
	<rect x="111.31" y="14.096" fill="#E6E7E8" width="25.963" height="8.235"/>
</g>
</svg>
