<?xml version="1.0" encoding="utf-8"?>
<!-- Generator: Adobe Illustrator 16.0.3, SVG Export Plug-In . SVG Version: 6.00 Build 0)  -->
<!DOCTYPE svg PUBLIC "-//W3C//DTD SVG 1.1//EN" "http://www.w3.org/Graphics/SVG/1.1/DTD/svg11.dtd">
<svg version="1.1" id="Layer_1" xmlns="http://www.w3.org/2000/svg" xmlns:xlink="http://www.w3.org/1999/xlink" x="0px" y="0px"
	 width="792px" height="612px" viewBox="0 0 792 612" enable-background="new 0 0 792 612" xml:space="preserve">
<g>
	<path fill="#58595B" d="M345.841,326.77c0,2.451-4.461,4.439-9.963,4.439H23.757c-5.5,0-9.961-1.988-9.961-4.439v-69.553
		c0-2.452,4.46-4.439,9.961-4.439h312.121c5.502,0,9.963,1.988,9.963,4.439V326.77z"/>
	<path fill="#58595B" d="M240.167,325.405c0,0.308-1.622,0.558-3.622,0.558H123.087c-1.999,0-3.62-0.25-3.62-0.558v-8.747
		c0-0.309,1.621-0.558,3.62-0.558h113.458c2,0,3.622,0.249,3.622,0.558V325.405z"/>
	<g>
		<path fill="#58595B" d="M41.153,265.188c0,0.235-0.218,0.425-0.485,0.425H25.436c-0.268,0-0.487-0.19-0.487-0.425v-6.665
			c0-0.235,0.219-0.425,0.487-0.425h15.231c0.268,0,0.485,0.189,0.485,0.425V265.188z"/>
		<path fill="#58595B" d="M59.938,265.188c0,0.235-0.218,0.425-0.487,0.425h-15.23c-0.269,0-0.485-0.19-0.485-0.425v-6.665
			c0-0.235,0.217-0.425,0.485-0.425h15.23c0.269,0,0.487,0.189,0.487,0.425V265.188z"/>
		<path fill="#58595B" d="M78.099,265.188c0,0.235-0.219,0.425-0.487,0.425H62.381c-0.268,0-0.486-0.19-0.486-0.425v-6.665
			c0-0.235,0.218-0.425,0.486-0.425h15.231c0.268,0,0.487,0.189,0.487,0.425V265.188z"/>
		<path fill="#58595B" d="M96.885,265.188c0,0.235-0.218,0.425-0.485,0.425H81.168c-0.268,0-0.487-0.19-0.487-0.425v-6.665
			c0-0.235,0.219-0.425,0.487-0.425h15.231c0.268,0,0.485,0.189,0.485,0.425V265.188z"/>
		<path fill="#58595B" d="M114.887,265.188c0,0.235-0.217,0.425-0.485,0.425h-15.23c-0.269,0-0.487-0.19-0.487-0.425v-6.665
			c0-0.235,0.218-0.425,0.487-0.425h15.23c0.269,0,0.485,0.189,0.485,0.425V265.188z"/>
		<path fill="#58595B" d="M133.674,265.188c0,0.235-0.218,0.425-0.487,0.425h-15.23c-0.269,0-0.485-0.19-0.485-0.425v-6.665
			c0-0.235,0.217-0.425,0.485-0.425h15.23c0.269,0,0.487,0.189,0.487,0.425V265.188z"/>
		<path fill="#58595B" d="M151.835,265.188c0,0.235-0.219,0.425-0.487,0.425h-15.231c-0.268,0-0.486-0.19-0.486-0.425v-6.665
			c0-0.235,0.218-0.425,0.486-0.425h15.231c0.268,0,0.487,0.189,0.487,0.425V265.188z"/>
		<path fill="#58595B" d="M170.619,265.188c0,0.235-0.217,0.425-0.485,0.425h-15.23c-0.269,0-0.486-0.19-0.486-0.425v-6.665
			c0-0.235,0.218-0.425,0.486-0.425h15.23c0.269,0,0.485,0.189,0.485,0.425V265.188z"/>
	</g>
	<path fill="#58595B" d="M188.388,265.188c0,0.235-0.218,0.425-0.487,0.425h-15.23c-0.269,0-0.486-0.19-0.486-0.425v-6.665
		c0-0.235,0.217-0.425,0.486-0.425h15.23c0.269,0,0.487,0.189,0.487,0.425V265.188z"/>
	<path fill="#58595B" d="M207.175,265.188c0,0.235-0.219,0.425-0.486,0.425h-15.231c-0.268,0-0.486-0.19-0.486-0.425v-6.665
		c0-0.235,0.218-0.425,0.486-0.425h15.231c0.268,0,0.486,0.189,0.486,0.425V265.188z"/>
	<path fill="#58595B" d="M225.334,265.188c0,0.235-0.217,0.425-0.484,0.425h-15.232c-0.268,0-0.487-0.19-0.487-0.425v-6.665
		c0-0.235,0.219-0.425,0.487-0.425h15.232c0.268,0,0.484,0.189,0.484,0.425V265.188z"/>
	<path fill="#58595B" d="M244.121,265.188c0,0.235-0.219,0.425-0.487,0.425h-15.231c-0.268,0-0.484-0.19-0.484-0.425v-6.665
		c0-0.235,0.217-0.425,0.484-0.425h15.231c0.268,0,0.487,0.189,0.487,0.425V265.188z"/>
	<path fill="#58595B" d="M262.125,265.188c0,0.235-0.219,0.425-0.487,0.425h-15.231c-0.268,0-0.484-0.19-0.484-0.425v-6.665
		c0-0.235,0.217-0.425,0.484-0.425h15.231c0.268,0,0.487,0.189,0.487,0.425V265.188z"/>
	<path fill="#58595B" d="M280.909,265.188c0,0.235-0.217,0.425-0.484,0.425h-15.231c-0.268,0-0.487-0.19-0.487-0.425v-6.665
		c0-0.235,0.219-0.425,0.487-0.425h15.231c0.268,0,0.484,0.189,0.484,0.425V265.188z"/>
	<path fill="#58595B" d="M299.069,265.188c0,0.235-0.217,0.425-0.484,0.425h-15.231c-0.27,0-0.486-0.19-0.486-0.425v-6.665
		c0-0.235,0.217-0.425,0.486-0.425h15.231c0.268,0,0.484,0.189,0.484,0.425V265.188z"/>
	<path fill="#58595B" d="M317.856,265.188c0,0.235-0.219,0.425-0.487,0.425h-15.229c-0.27,0-0.487-0.19-0.487-0.425v-6.665
		c0-0.235,0.217-0.425,0.487-0.425h15.229c0.268,0,0.487,0.189,0.487,0.425V265.188z"/>
	<g>
		<g>
			<path fill="#58595B" d="M41.041,277.902c0,0.322-0.142,0.582-0.317,0.582h-9.966c-0.175,0-0.317-0.26-0.317-0.582v-9.125
				c0-0.32,0.143-0.581,0.317-0.581h9.966c0.176,0,0.317,0.261,0.317,0.581V277.902z"/>
			<path fill="#58595B" d="M53.334,277.902c0,0.322-0.142,0.582-0.317,0.582H43.05c-0.175,0-0.319-0.26-0.319-0.582v-9.125
				c0-0.32,0.144-0.581,0.319-0.581h9.966c0.176,0,0.317,0.261,0.317,0.581V277.902z"/>
			<path fill="#58595B" d="M65.475,277.902c0,0.322-0.144,0.582-0.319,0.582h-9.967c-0.175,0-0.318-0.26-0.318-0.582v-9.125
				c0-0.32,0.143-0.581,0.318-0.581h9.967c0.175,0,0.319,0.261,0.319,0.581V277.902z"/>
			<path fill="#58595B" d="M77.361,277.902c0,0.322-0.143,0.582-0.318,0.582h-9.965c-0.176,0-0.318-0.26-0.318-0.582v-9.125
				c0-0.32,0.142-0.581,0.318-0.581h9.965c0.176,0,0.318,0.261,0.318,0.581V277.902z"/>
			<path fill="#58595B" d="M89.654,277.902c0,0.322-0.143,0.582-0.317,0.582H79.37c-0.176,0-0.318-0.26-0.318-0.582v-9.125
				c0-0.32,0.143-0.581,0.318-0.581h9.967c0.175,0,0.317,0.261,0.317,0.581V277.902z"/>
			<path fill="#58595B" d="M101.793,277.902c0,0.322-0.144,0.582-0.319,0.582h-9.966c-0.176,0-0.317-0.26-0.317-0.582v-9.125
				c0-0.32,0.142-0.581,0.317-0.581h9.966c0.175,0,0.319,0.261,0.319,0.581V277.902z"/>
		</g>
		<g>
			<path fill="#58595B" d="M114.088,277.902c0,0.322-0.142,0.582-0.318,0.582h-9.965c-0.175,0-0.317-0.26-0.317-0.582v-9.125
				c0-0.32,0.143-0.581,0.317-0.581h9.965c0.177,0,0.318,0.261,0.318,0.581V277.902z"/>
			<path fill="#58595B" d="M126.381,277.902c0,0.322-0.142,0.582-0.317,0.582h-9.966c-0.175,0-0.319-0.26-0.319-0.582v-9.125
				c0-0.32,0.144-0.581,0.319-0.581h9.966c0.176,0,0.317,0.261,0.317,0.581V277.902z"/>
			<path fill="#58595B" d="M138.521,277.902c0,0.322-0.143,0.582-0.317,0.582h-9.967c-0.175,0-0.318-0.26-0.318-0.582v-9.125
				c0-0.32,0.143-0.581,0.318-0.581h9.967c0.175,0,0.317,0.261,0.317,0.581V277.902z"/>
			<path fill="#58595B" d="M150.409,277.902c0,0.322-0.143,0.582-0.318,0.582h-9.965c-0.176,0-0.319-0.26-0.319-0.582v-9.125
				c0-0.32,0.143-0.581,0.319-0.581h9.965c0.176,0,0.318,0.261,0.318,0.581V277.902z"/>
			<path fill="#58595B" d="M162.702,277.902c0,0.322-0.143,0.582-0.317,0.582h-9.968c-0.175,0-0.317-0.26-0.317-0.582v-9.125
				c0-0.32,0.143-0.581,0.317-0.581h9.968c0.175,0,0.317,0.261,0.317,0.581V277.902z"/>
			<path fill="#58595B" d="M174.841,277.902c0,0.322-0.144,0.582-0.318,0.582h-9.967c-0.176,0-0.317-0.26-0.317-0.582v-9.125
				c0-0.32,0.142-0.581,0.317-0.581h9.967c0.174,0,0.318,0.261,0.318,0.581V277.902z"/>
		</g>
		<g>
			<path fill="#58595B" d="M186.958,277.902c0,0.322-0.143,0.582-0.319,0.582h-9.965c-0.176,0-0.317-0.26-0.317-0.582v-9.125
				c0-0.32,0.142-0.581,0.317-0.581h9.965c0.176,0,0.319,0.261,0.319,0.581V277.902z"/>
			<path fill="#58595B" d="M199.251,277.902c0,0.322-0.143,0.582-0.318,0.582h-9.966c-0.176,0-0.318-0.26-0.318-0.582v-9.125
				c0-0.32,0.143-0.581,0.318-0.581h9.966c0.175,0,0.318,0.261,0.318,0.581V277.902z"/>
			<path fill="#58595B" d="M211.39,277.902c0,0.322-0.144,0.582-0.319,0.582h-9.966c-0.176,0-0.317-0.26-0.317-0.582v-9.125
				c0-0.32,0.142-0.581,0.317-0.581h9.966c0.175,0,0.319,0.261,0.319,0.581V277.902z"/>
			<path fill="#58595B" d="M223.278,277.902c0,0.322-0.144,0.582-0.318,0.582h-9.966c-0.176,0-0.319-0.26-0.319-0.582v-9.125
				c0-0.32,0.143-0.581,0.319-0.581h9.966c0.175,0,0.318,0.261,0.318,0.581V277.902z"/>
			<path fill="#58595B" d="M235.571,277.902c0,0.322-0.144,0.582-0.318,0.582h-9.968c-0.175,0-0.316-0.26-0.316-0.582v-9.125
				c0-0.32,0.142-0.581,0.316-0.581h9.968c0.175,0,0.318,0.261,0.318,0.581V277.902z"/>
			<path fill="#58595B" d="M247.709,277.902c0,0.322-0.144,0.582-0.318,0.582h-9.965c-0.177,0-0.319-0.26-0.319-0.582v-9.125
				c0-0.32,0.142-0.581,0.319-0.581h9.965c0.175,0,0.318,0.261,0.318,0.581V277.902z"/>
		</g>
		<g>
			<path fill="#58595B" d="M259.752,277.902c0,0.322-0.142,0.582-0.316,0.582h-9.965c-0.177,0-0.318-0.26-0.318-0.582v-9.125
				c0-0.32,0.142-0.581,0.318-0.581h9.965c0.175,0,0.316,0.261,0.316,0.581V277.902z"/>
			<path fill="#58595B" d="M272.047,277.902c0,0.322-0.144,0.582-0.318,0.582h-9.968c-0.175,0-0.316-0.26-0.316-0.582v-9.125
				c0-0.32,0.142-0.581,0.316-0.581h9.968c0.175,0,0.318,0.261,0.318,0.581V277.902z"/>
			<path fill="#58595B" d="M284.186,277.902c0,0.322-0.144,0.582-0.318,0.582h-9.965c-0.177,0-0.319-0.26-0.319-0.582v-9.125
				c0-0.32,0.142-0.581,0.319-0.581h9.965c0.175,0,0.318,0.261,0.318,0.581V277.902z"/>
			<path fill="#58595B" d="M296.074,277.902c0,0.322-0.144,0.582-0.319,0.582h-9.965c-0.175,0-0.318-0.26-0.318-0.582v-9.125
				c0-0.32,0.144-0.581,0.318-0.581h9.965c0.175,0,0.319,0.261,0.319,0.581V277.902z"/>
			<path fill="#58595B" d="M308.367,277.902c0,0.322-0.144,0.582-0.319,0.582h-9.965c-0.177,0-0.318-0.26-0.318-0.582v-9.125
				c0-0.32,0.142-0.581,0.318-0.581h9.965c0.175,0,0.319,0.261,0.319,0.581V277.902z"/>
			<path fill="#58595B" d="M320.505,277.902c0,0.322-0.142,0.582-0.319,0.582h-9.965c-0.175,0-0.318-0.26-0.318-0.582v-9.125
				c0-0.32,0.144-0.581,0.318-0.581h9.965c0.177,0,0.319,0.261,0.319,0.581V277.902z"/>
		</g>
	</g>
	<path fill="#58595B" d="M337.504,265.188c0,0.235-0.219,0.425-0.487,0.425h-15.231c-0.268,0-0.487-0.19-0.487-0.425v-6.665
		c0-0.235,0.219-0.425,0.487-0.425h15.231c0.268,0,0.487,0.189,0.487,0.425V265.188z"/>
	<g>
		<g>
			<path fill="#58595B" d="M41.041,289.455c0,0.323-0.142,0.582-0.317,0.582h-9.966c-0.175,0-0.317-0.259-0.317-0.582v-9.125
				c0-0.32,0.143-0.581,0.317-0.581h9.966c0.176,0,0.317,0.261,0.317,0.581V289.455z"/>
			<path fill="#58595B" d="M53.334,289.455c0,0.323-0.142,0.582-0.317,0.582H43.05c-0.175,0-0.319-0.259-0.319-0.582v-9.125
				c0-0.32,0.144-0.581,0.319-0.581h9.966c0.176,0,0.317,0.261,0.317,0.581V289.455z"/>
			<path fill="#58595B" d="M65.475,289.455c0,0.323-0.144,0.582-0.319,0.582h-9.967c-0.175,0-0.318-0.259-0.318-0.582v-9.125
				c0-0.32,0.143-0.581,0.318-0.581h9.967c0.175,0,0.319,0.261,0.319,0.581V289.455z"/>
			<path fill="#58595B" d="M77.361,289.455c0,0.323-0.143,0.582-0.318,0.582h-9.965c-0.176,0-0.318-0.259-0.318-0.582v-9.125
				c0-0.32,0.142-0.581,0.318-0.581h9.965c0.176,0,0.318,0.261,0.318,0.581V289.455z"/>
			<path fill="#58595B" d="M89.654,289.455c0,0.323-0.143,0.582-0.317,0.582H79.37c-0.176,0-0.318-0.259-0.318-0.582v-9.125
				c0-0.32,0.143-0.581,0.318-0.581h9.967c0.175,0,0.317,0.261,0.317,0.581V289.455z"/>
			<path fill="#58595B" d="M101.793,289.455c0,0.323-0.144,0.582-0.319,0.582h-9.966c-0.176,0-0.317-0.259-0.317-0.582v-9.125
				c0-0.32,0.142-0.581,0.317-0.581h9.966c0.175,0,0.319,0.261,0.319,0.581V289.455z"/>
		</g>
		<g>
			<path fill="#58595B" d="M114.088,289.455c0,0.323-0.142,0.582-0.318,0.582h-9.965c-0.175,0-0.317-0.259-0.317-0.582v-9.125
				c0-0.32,0.143-0.581,0.317-0.581h9.965c0.177,0,0.318,0.261,0.318,0.581V289.455z"/>
			<path fill="#58595B" d="M126.381,289.455c0,0.323-0.142,0.582-0.317,0.582h-9.966c-0.175,0-0.319-0.259-0.319-0.582v-9.125
				c0-0.32,0.144-0.581,0.319-0.581h9.966c0.176,0,0.317,0.261,0.317,0.581V289.455z"/>
			<path fill="#58595B" d="M138.521,289.455c0,0.323-0.143,0.582-0.317,0.582h-9.967c-0.175,0-0.318-0.259-0.318-0.582v-9.125
				c0-0.32,0.143-0.581,0.318-0.581h9.967c0.175,0,0.317,0.261,0.317,0.581V289.455z"/>
			<path fill="#58595B" d="M150.409,289.455c0,0.323-0.143,0.582-0.318,0.582h-9.965c-0.176,0-0.319-0.259-0.319-0.582v-9.125
				c0-0.32,0.143-0.581,0.319-0.581h9.965c0.176,0,0.318,0.261,0.318,0.581V289.455z"/>
			<path fill="#58595B" d="M162.702,289.455c0,0.323-0.143,0.582-0.317,0.582h-9.968c-0.175,0-0.317-0.259-0.317-0.582v-9.125
				c0-0.32,0.143-0.581,0.317-0.581h9.968c0.175,0,0.317,0.261,0.317,0.581V289.455z"/>
			<path fill="#58595B" d="M174.841,289.455c0,0.323-0.144,0.582-0.318,0.582h-9.967c-0.176,0-0.317-0.259-0.317-0.582v-9.125
				c0-0.32,0.142-0.581,0.317-0.581h9.967c0.174,0,0.318,0.261,0.318,0.581V289.455z"/>
		</g>
		<g>
			<path fill="#58595B" d="M186.958,289.455c0,0.323-0.143,0.582-0.319,0.582h-9.965c-0.176,0-0.317-0.259-0.317-0.582v-9.125
				c0-0.32,0.142-0.581,0.317-0.581h9.965c0.176,0,0.319,0.261,0.319,0.581V289.455z"/>
			<path fill="#58595B" d="M199.251,289.455c0,0.323-0.143,0.582-0.318,0.582h-9.966c-0.176,0-0.318-0.259-0.318-0.582v-9.125
				c0-0.32,0.143-0.581,0.318-0.581h9.966c0.175,0,0.318,0.261,0.318,0.581V289.455z"/>
			<path fill="#58595B" d="M211.39,289.455c0,0.323-0.144,0.582-0.319,0.582h-9.966c-0.176,0-0.317-0.259-0.317-0.582v-9.125
				c0-0.32,0.142-0.581,0.317-0.581h9.966c0.175,0,0.319,0.261,0.319,0.581V289.455z"/>
			<path fill="#58595B" d="M223.278,289.455c0,0.323-0.144,0.582-0.318,0.582h-9.966c-0.176,0-0.319-0.259-0.319-0.582v-9.125
				c0-0.32,0.143-0.581,0.319-0.581h9.966c0.175,0,0.318,0.261,0.318,0.581V289.455z"/>
			<path fill="#58595B" d="M235.571,289.455c0,0.323-0.144,0.582-0.318,0.582h-9.968c-0.175,0-0.316-0.259-0.316-0.582v-9.125
				c0-0.32,0.142-0.581,0.316-0.581h9.968c0.175,0,0.318,0.261,0.318,0.581V289.455z"/>
			<path fill="#58595B" d="M247.709,289.455c0,0.323-0.144,0.582-0.318,0.582h-9.965c-0.177,0-0.319-0.259-0.319-0.582v-9.125
				c0-0.32,0.142-0.581,0.319-0.581h9.965c0.175,0,0.318,0.261,0.318,0.581V289.455z"/>
		</g>
		<g>
			<path fill="#58595B" d="M259.752,289.455c0,0.323-0.142,0.582-0.316,0.582h-9.965c-0.177,0-0.318-0.259-0.318-0.582v-9.125
				c0-0.32,0.142-0.581,0.318-0.581h9.965c0.175,0,0.316,0.261,0.316,0.581V289.455z"/>
			<path fill="#58595B" d="M272.047,289.455c0,0.323-0.144,0.582-0.318,0.582h-9.968c-0.175,0-0.316-0.259-0.316-0.582v-9.125
				c0-0.32,0.142-0.581,0.316-0.581h9.968c0.175,0,0.318,0.261,0.318,0.581V289.455z"/>
			<path fill="#58595B" d="M284.186,289.455c0,0.323-0.144,0.582-0.318,0.582h-9.965c-0.177,0-0.319-0.259-0.319-0.582v-9.125
				c0-0.32,0.142-0.581,0.319-0.581h9.965c0.175,0,0.318,0.261,0.318,0.581V289.455z"/>
			<path fill="#58595B" d="M296.074,289.455c0,0.323-0.144,0.582-0.319,0.582h-9.965c-0.175,0-0.318-0.259-0.318-0.582v-9.125
				c0-0.32,0.144-0.581,0.318-0.581h9.965c0.175,0,0.319,0.261,0.319,0.581V289.455z"/>
			<path fill="#58595B" d="M308.367,289.455c0,0.323-0.144,0.582-0.319,0.582h-9.965c-0.177,0-0.318-0.259-0.318-0.582v-9.125
				c0-0.32,0.142-0.581,0.318-0.581h9.965c0.175,0,0.319,0.261,0.319,0.581V289.455z"/>
			<path fill="#58595B" d="M320.505,289.455c0,0.323-0.142,0.582-0.319,0.582h-9.965c-0.175,0-0.318-0.259-0.318-0.582v-9.125
				c0-0.32,0.144-0.581,0.318-0.581h9.965c0.177,0,0.319,0.261,0.319,0.581V289.455z"/>
		</g>
	</g>
	<g>
		<g>
			<path fill="#58595B" d="M41.041,301.15c0,0.322-0.142,0.582-0.317,0.582h-9.966c-0.175,0-0.317-0.26-0.317-0.582v-9.126
				c0-0.32,0.143-0.58,0.317-0.58h9.966c0.176,0,0.317,0.26,0.317,0.58V301.15z"/>
			<path fill="#58595B" d="M53.334,301.15c0,0.322-0.142,0.582-0.317,0.582H43.05c-0.175,0-0.319-0.26-0.319-0.582v-9.126
				c0-0.32,0.144-0.58,0.319-0.58h9.966c0.176,0,0.317,0.26,0.317,0.58V301.15z"/>
			<path fill="#58595B" d="M65.475,301.15c0,0.322-0.144,0.582-0.319,0.582h-9.967c-0.175,0-0.318-0.26-0.318-0.582v-9.126
				c0-0.32,0.143-0.58,0.318-0.58h9.967c0.175,0,0.319,0.26,0.319,0.58V301.15z"/>
			<path fill="#58595B" d="M77.361,301.15c0,0.322-0.143,0.582-0.318,0.582h-9.965c-0.176,0-0.318-0.26-0.318-0.582v-9.126
				c0-0.32,0.142-0.58,0.318-0.58h9.965c0.176,0,0.318,0.26,0.318,0.58V301.15z"/>
			<path fill="#58595B" d="M89.654,301.15c0,0.322-0.143,0.582-0.317,0.582H79.37c-0.176,0-0.318-0.26-0.318-0.582v-9.126
				c0-0.32,0.143-0.58,0.318-0.58h9.967c0.175,0,0.317,0.26,0.317,0.58V301.15z"/>
			<path fill="#58595B" d="M101.793,301.15c0,0.322-0.144,0.582-0.319,0.582h-9.966c-0.176,0-0.317-0.26-0.317-0.582v-9.126
				c0-0.32,0.142-0.58,0.317-0.58h9.966c0.175,0,0.319,0.26,0.319,0.58V301.15z"/>
		</g>
		<g>
			<path fill="#58595B" d="M114.088,301.15c0,0.322-0.142,0.582-0.318,0.582h-9.965c-0.175,0-0.317-0.26-0.317-0.582v-9.126
				c0-0.32,0.143-0.58,0.317-0.58h9.965c0.177,0,0.318,0.26,0.318,0.58V301.15z"/>
			<path fill="#58595B" d="M126.381,301.15c0,0.322-0.142,0.582-0.317,0.582h-9.966c-0.175,0-0.319-0.26-0.319-0.582v-9.126
				c0-0.32,0.144-0.58,0.319-0.58h9.966c0.176,0,0.317,0.26,0.317,0.58V301.15z"/>
			<path fill="#58595B" d="M138.521,301.15c0,0.322-0.143,0.582-0.317,0.582h-9.967c-0.175,0-0.318-0.26-0.318-0.582v-9.126
				c0-0.32,0.143-0.58,0.318-0.58h9.967c0.175,0,0.317,0.26,0.317,0.58V301.15z"/>
			<path fill="#58595B" d="M150.409,301.15c0,0.322-0.143,0.582-0.318,0.582h-9.965c-0.176,0-0.319-0.26-0.319-0.582v-9.126
				c0-0.32,0.143-0.58,0.319-0.58h9.965c0.176,0,0.318,0.26,0.318,0.58V301.15z"/>
			<path fill="#58595B" d="M162.702,301.15c0,0.322-0.143,0.582-0.317,0.582h-9.968c-0.175,0-0.317-0.26-0.317-0.582v-9.126
				c0-0.32,0.143-0.58,0.317-0.58h9.968c0.175,0,0.317,0.26,0.317,0.58V301.15z"/>
			<path fill="#58595B" d="M174.841,301.15c0,0.322-0.144,0.582-0.318,0.582h-9.967c-0.176,0-0.317-0.26-0.317-0.582v-9.126
				c0-0.32,0.142-0.58,0.317-0.58h9.967c0.174,0,0.318,0.26,0.318,0.58V301.15z"/>
		</g>
		<g>
			<path fill="#58595B" d="M186.958,301.15c0,0.322-0.143,0.582-0.319,0.582h-9.965c-0.176,0-0.317-0.26-0.317-0.582v-9.126
				c0-0.32,0.142-0.58,0.317-0.58h9.965c0.176,0,0.319,0.26,0.319,0.58V301.15z"/>
			<path fill="#58595B" d="M199.251,301.15c0,0.322-0.143,0.582-0.318,0.582h-9.966c-0.176,0-0.318-0.26-0.318-0.582v-9.126
				c0-0.32,0.143-0.58,0.318-0.58h9.966c0.175,0,0.318,0.26,0.318,0.58V301.15z"/>
			<path fill="#58595B" d="M211.39,301.15c0,0.322-0.144,0.582-0.319,0.582h-9.966c-0.176,0-0.317-0.26-0.317-0.582v-9.126
				c0-0.32,0.142-0.58,0.317-0.58h9.966c0.175,0,0.319,0.26,0.319,0.58V301.15z"/>
			<path fill="#58595B" d="M223.278,301.15c0,0.322-0.144,0.582-0.318,0.582h-9.966c-0.176,0-0.319-0.26-0.319-0.582v-9.126
				c0-0.32,0.143-0.58,0.319-0.58h9.966c0.175,0,0.318,0.26,0.318,0.58V301.15z"/>
			<path fill="#58595B" d="M235.571,301.15c0,0.322-0.144,0.582-0.318,0.582h-9.968c-0.175,0-0.316-0.26-0.316-0.582v-9.126
				c0-0.32,0.142-0.58,0.316-0.58h9.968c0.175,0,0.318,0.26,0.318,0.58V301.15z"/>
			<path fill="#58595B" d="M247.709,301.15c0,0.322-0.144,0.582-0.318,0.582h-9.965c-0.177,0-0.319-0.26-0.319-0.582v-9.126
				c0-0.32,0.142-0.58,0.319-0.58h9.965c0.175,0,0.318,0.26,0.318,0.58V301.15z"/>
		</g>
		<g>
			<path fill="#58595B" d="M259.752,301.15c0,0.322-0.142,0.582-0.316,0.582h-9.965c-0.177,0-0.318-0.26-0.318-0.582v-9.126
				c0-0.32,0.142-0.58,0.318-0.58h9.965c0.175,0,0.316,0.26,0.316,0.58V301.15z"/>
			<path fill="#58595B" d="M272.047,301.15c0,0.322-0.144,0.582-0.318,0.582h-9.968c-0.175,0-0.316-0.26-0.316-0.582v-9.126
				c0-0.32,0.142-0.58,0.316-0.58h9.968c0.175,0,0.318,0.26,0.318,0.58V301.15z"/>
			<path fill="#58595B" d="M284.186,301.15c0,0.322-0.144,0.582-0.318,0.582h-9.965c-0.177,0-0.319-0.26-0.319-0.582v-9.126
				c0-0.32,0.142-0.58,0.319-0.58h9.965c0.175,0,0.318,0.26,0.318,0.58V301.15z"/>
			<path fill="#58595B" d="M296.074,301.15c0,0.322-0.144,0.582-0.319,0.582h-9.965c-0.175,0-0.318-0.26-0.318-0.582v-9.126
				c0-0.32,0.144-0.58,0.318-0.58h9.965c0.175,0,0.319,0.26,0.319,0.58V301.15z"/>
			<path fill="#58595B" d="M308.367,301.15c0,0.322-0.144,0.582-0.319,0.582h-9.965c-0.177,0-0.318-0.26-0.318-0.582v-9.126
				c0-0.32,0.142-0.58,0.318-0.58h9.965c0.175,0,0.319,0.26,0.319,0.58V301.15z"/>
			<path fill="#58595B" d="M320.505,301.15c0,0.322-0.142,0.582-0.319,0.582h-9.965c-0.175,0-0.318-0.26-0.318-0.582v-9.126
				c0-0.32,0.144-0.58,0.318-0.58h9.965c0.177,0,0.319,0.26,0.319,0.58V301.15z"/>
		</g>
	</g>
	<g>
		<g>
			<path fill="#58595B" d="M41.041,312.747c0,0.321-0.142,0.581-0.317,0.581h-9.966c-0.175,0-0.317-0.26-0.317-0.581v-9.126
				c0-0.32,0.143-0.581,0.317-0.581h9.966c0.176,0,0.317,0.261,0.317,0.581V312.747z"/>
			<path fill="#58595B" d="M53.334,312.747c0,0.321-0.142,0.581-0.317,0.581H43.05c-0.175,0-0.319-0.26-0.319-0.581v-9.126
				c0-0.32,0.144-0.581,0.319-0.581h9.966c0.176,0,0.317,0.261,0.317,0.581V312.747z"/>
			<path fill="#58595B" d="M65.475,312.747c0,0.321-0.144,0.581-0.319,0.581h-9.967c-0.175,0-0.318-0.26-0.318-0.581v-9.126
				c0-0.32,0.143-0.581,0.318-0.581h9.967c0.175,0,0.319,0.261,0.319,0.581V312.747z"/>
			<path fill="#58595B" d="M77.361,312.747c0,0.321-0.143,0.581-0.318,0.581h-9.965c-0.176,0-0.318-0.26-0.318-0.581v-9.126
				c0-0.32,0.142-0.581,0.318-0.581h9.965c0.176,0,0.318,0.261,0.318,0.581V312.747z"/>
			<path fill="#58595B" d="M89.654,312.747c0,0.321-0.143,0.581-0.317,0.581H79.37c-0.176,0-0.318-0.26-0.318-0.581v-9.126
				c0-0.32,0.143-0.581,0.318-0.581h9.967c0.175,0,0.317,0.261,0.317,0.581V312.747z"/>
			<path fill="#58595B" d="M101.793,312.747c0,0.321-0.144,0.581-0.319,0.581h-9.966c-0.176,0-0.317-0.26-0.317-0.581v-9.126
				c0-0.32,0.142-0.581,0.317-0.581h9.966c0.175,0,0.319,0.261,0.319,0.581V312.747z"/>
		</g>
		<g>
			<path fill="#58595B" d="M114.088,312.747c0,0.321-0.142,0.581-0.318,0.581h-9.965c-0.175,0-0.317-0.26-0.317-0.581v-9.126
				c0-0.32,0.143-0.581,0.317-0.581h9.965c0.177,0,0.318,0.261,0.318,0.581V312.747z"/>
			<path fill="#58595B" d="M126.381,312.747c0,0.321-0.142,0.581-0.317,0.581h-9.966c-0.175,0-0.319-0.26-0.319-0.581v-9.126
				c0-0.32,0.144-0.581,0.319-0.581h9.966c0.176,0,0.317,0.261,0.317,0.581V312.747z"/>
			<path fill="#58595B" d="M138.521,312.747c0,0.321-0.143,0.581-0.317,0.581h-9.967c-0.175,0-0.318-0.26-0.318-0.581v-9.126
				c0-0.32,0.143-0.581,0.318-0.581h9.967c0.175,0,0.317,0.261,0.317,0.581V312.747z"/>
			<path fill="#58595B" d="M150.409,312.747c0,0.321-0.143,0.581-0.318,0.581h-9.965c-0.176,0-0.319-0.26-0.319-0.581v-9.126
				c0-0.32,0.143-0.581,0.319-0.581h9.965c0.176,0,0.318,0.261,0.318,0.581V312.747z"/>
			<path fill="#58595B" d="M162.702,312.747c0,0.321-0.143,0.581-0.317,0.581h-9.968c-0.175,0-0.317-0.26-0.317-0.581v-9.126
				c0-0.32,0.143-0.581,0.317-0.581h9.968c0.175,0,0.317,0.261,0.317,0.581V312.747z"/>
			<path fill="#58595B" d="M174.841,312.747c0,0.321-0.144,0.581-0.318,0.581h-9.967c-0.176,0-0.317-0.26-0.317-0.581v-9.126
				c0-0.32,0.142-0.581,0.317-0.581h9.967c0.174,0,0.318,0.261,0.318,0.581V312.747z"/>
		</g>
		<g>
			<path fill="#58595B" d="M186.958,312.747c0,0.321-0.143,0.581-0.319,0.581h-9.965c-0.176,0-0.317-0.26-0.317-0.581v-9.126
				c0-0.32,0.142-0.581,0.317-0.581h9.965c0.176,0,0.319,0.261,0.319,0.581V312.747z"/>
			<path fill="#58595B" d="M199.251,312.747c0,0.321-0.143,0.581-0.318,0.581h-9.966c-0.176,0-0.318-0.26-0.318-0.581v-9.126
				c0-0.32,0.143-0.581,0.318-0.581h9.966c0.175,0,0.318,0.261,0.318,0.581V312.747z"/>
			<path fill="#58595B" d="M211.39,312.747c0,0.321-0.144,0.581-0.319,0.581h-9.966c-0.176,0-0.317-0.26-0.317-0.581v-9.126
				c0-0.32,0.142-0.581,0.317-0.581h9.966c0.175,0,0.319,0.261,0.319,0.581V312.747z"/>
			<path fill="#58595B" d="M223.278,312.747c0,0.321-0.144,0.581-0.318,0.581h-9.966c-0.176,0-0.319-0.26-0.319-0.581v-9.126
				c0-0.32,0.143-0.581,0.319-0.581h9.966c0.175,0,0.318,0.261,0.318,0.581V312.747z"/>
			<path fill="#58595B" d="M235.571,312.747c0,0.321-0.144,0.581-0.318,0.581h-9.968c-0.175,0-0.316-0.26-0.316-0.581v-9.126
				c0-0.32,0.142-0.581,0.316-0.581h9.968c0.175,0,0.318,0.261,0.318,0.581V312.747z"/>
			<path fill="#58595B" d="M247.709,312.747c0,0.321-0.144,0.581-0.318,0.581h-9.965c-0.177,0-0.319-0.26-0.319-0.581v-9.126
				c0-0.32,0.142-0.581,0.319-0.581h9.965c0.175,0,0.318,0.261,0.318,0.581V312.747z"/>
		</g>
		<g>
			<path fill="#58595B" d="M259.752,312.747c0,0.321-0.142,0.581-0.316,0.581h-9.965c-0.177,0-0.318-0.26-0.318-0.581v-9.126
				c0-0.32,0.142-0.581,0.318-0.581h9.965c0.175,0,0.316,0.261,0.316,0.581V312.747z"/>
			<path fill="#58595B" d="M272.047,312.747c0,0.321-0.144,0.581-0.318,0.581h-9.968c-0.175,0-0.316-0.26-0.316-0.581v-9.126
				c0-0.32,0.142-0.581,0.316-0.581h9.968c0.175,0,0.318,0.261,0.318,0.581V312.747z"/>
			<path fill="#58595B" d="M284.184,312.747c0,0.321-0.142,0.581-0.316,0.581h-9.965c-0.177,0-0.319-0.26-0.319-0.581v-9.126
				c0-0.32,0.142-0.581,0.319-0.581h9.965c0.175,0,0.316,0.261,0.316,0.581V312.747z"/>
			<path fill="#58595B" d="M296.071,312.747c0,0.321-0.142,0.581-0.316,0.581h-9.965c-0.177,0-0.318-0.26-0.318-0.581v-9.126
				c0-0.32,0.142-0.581,0.318-0.581h9.965c0.175,0,0.316,0.261,0.316,0.581V312.747z"/>
			<path fill="#58595B" d="M308.367,312.747c0,0.321-0.144,0.581-0.319,0.581h-9.967c-0.175,0-0.316-0.26-0.316-0.581v-9.126
				c0-0.32,0.142-0.581,0.316-0.581h9.967c0.175,0,0.319,0.261,0.319,0.581V312.747z"/>
			<path fill="#58595B" d="M320.505,312.747c0,0.321-0.142,0.581-0.319,0.581h-9.965c-0.177,0-0.318-0.26-0.318-0.581v-9.126
				c0-0.32,0.142-0.581,0.318-0.581h9.965c0.177,0,0.319,0.261,0.319,0.581V312.747z"/>
		</g>
	</g>
	<g>
		<path fill="#58595B" d="M33.088,324.364c0,0.234-0.167,0.424-0.371,0.424H21.094c-0.205,0-0.371-0.189-0.371-0.424v-6.665
			c0-0.234,0.166-0.425,0.371-0.425h11.624c0.204,0,0.371,0.19,0.371,0.425V324.364z"/>
		<path fill="#58595B" d="M47.424,324.364c0,0.234-0.166,0.424-0.371,0.424H35.43c-0.205,0-0.372-0.189-0.372-0.424v-6.665
			c0-0.234,0.167-0.425,0.372-0.425h11.624c0.205,0,0.371,0.19,0.371,0.425V324.364z"/>
		<path fill="#58595B" d="M61.284,324.364c0,0.234-0.167,0.424-0.372,0.424H49.29c-0.206,0-0.372-0.189-0.372-0.424v-6.665
			c0-0.234,0.166-0.425,0.372-0.425h11.623c0.205,0,0.372,0.19,0.372,0.425V324.364z"/>
		<path fill="#58595B" d="M75.619,324.364c0,0.234-0.166,0.424-0.37,0.424H63.625c-0.203,0-0.371-0.189-0.371-0.424v-6.665
			c0-0.234,0.167-0.425,0.371-0.425H75.25c0.204,0,0.37,0.19,0.37,0.425V324.364z"/>
		<path fill="#58595B" d="M89.359,324.364c0,0.234-0.166,0.424-0.372,0.424H77.365c-0.205,0-0.372-0.189-0.372-0.424v-6.665
			c0-0.234,0.167-0.425,0.372-0.425h11.623c0.206,0,0.372,0.19,0.372,0.425V324.364z"/>
		<path fill="#58595B" d="M103.695,324.364c0,0.234-0.167,0.424-0.371,0.424H91.701c-0.205,0-0.371-0.189-0.371-0.424v-6.665
			c0-0.234,0.166-0.425,0.371-0.425h11.624c0.204,0,0.371,0.19,0.371,0.425V324.364z"/>
		<path fill="#58595B" d="M117.553,324.364c0,0.234-0.166,0.424-0.371,0.424h-11.624c-0.204,0-0.371-0.189-0.371-0.424v-6.665
			c0-0.234,0.167-0.425,0.371-0.425h11.624c0.205,0,0.371,0.19,0.371,0.425V324.364z"/>
		<path fill="#58595B" d="M131.891,324.364c0,0.234-0.167,0.424-0.372,0.424h-11.623c-0.206,0-0.372-0.189-0.372-0.424v-6.665
			c0-0.234,0.166-0.425,0.372-0.425h11.623c0.205,0,0.372,0.19,0.372,0.425V324.364z"/>
	</g>
	<path fill="#58595B" d="M254.544,324.364c0,0.234-0.166,0.424-0.369,0.424h-11.623c-0.206,0-0.372-0.189-0.372-0.424v-6.665
		c0-0.234,0.166-0.425,0.372-0.425h11.623c0.203,0,0.369,0.19,0.369,0.425V324.364z"/>
	<path fill="#58595B" d="M268.881,324.364c0,0.234-0.166,0.424-0.372,0.424h-11.623c-0.204,0-0.372-0.189-0.372-0.424v-6.665
		c0-0.234,0.168-0.425,0.372-0.425h11.623c0.206,0,0.372,0.19,0.372,0.425V324.364z"/>
	<path fill="#58595B" d="M282.741,324.364c0,0.234-0.168,0.424-0.372,0.424h-11.623c-0.206,0-0.372-0.189-0.372-0.424v-6.665
		c0-0.234,0.166-0.425,0.372-0.425h11.623c0.204,0,0.372,0.19,0.372,0.425V324.364z"/>
	<path fill="#58595B" d="M297.076,324.364c0,0.234-0.166,0.424-0.37,0.424h-11.625c-0.204,0-0.372-0.189-0.372-0.424v-6.665
		c0-0.234,0.168-0.425,0.372-0.425h11.625c0.204,0,0.37,0.19,0.37,0.425V324.364z"/>
	<path fill="#58595B" d="M310.816,324.364c0,0.234-0.166,0.424-0.372,0.424h-11.623c-0.204,0-0.372-0.189-0.372-0.424v-6.665
		c0-0.234,0.168-0.425,0.372-0.425h11.623c0.206,0,0.372,0.19,0.372,0.425V324.364z"/>
	<path fill="#58595B" d="M325.153,324.364c0,0.234-0.168,0.424-0.372,0.424h-11.625c-0.204,0-0.37-0.189-0.37-0.424v-6.665
		c0-0.234,0.166-0.425,0.37-0.425h11.625c0.203,0,0.372,0.19,0.372,0.425V324.364z"/>
	<path fill="#58595B" d="M339.01,324.364c0,0.234-0.166,0.424-0.369,0.424h-11.625c-0.204,0-0.37-0.189-0.37-0.424v-6.665
		c0-0.234,0.166-0.425,0.37-0.425h11.625c0.204,0,0.369,0.19,0.369,0.425V324.364z"/>
	<g>
		<rect x="101.403" y="230.372" fill="#58595B" width="164.007" height="19.96"/>
		<rect x="107.725" y="230.372" fill="#6D6E71" width="157.686" height="19.96"/>
		<rect x="148.408" y="185.05" fill="#58595B" width="69.743" height="45.322"/>
		<rect x="154.69" y="185.05" fill="#6D6E71" width="67.629" height="54.011"/>
		<path fill="#6D6E71" d="M344.252,204.781c0,6.481-4.46,11.735-9.961,11.735H22.171c-5.501,0-9.961-5.254-9.961-11.735V20.903
			c0-6.481,4.46-11.737,9.961-11.737h312.121c5.5,0,9.961,5.255,9.961,11.737V204.781z"/>
		<path fill="#808285" d="M350.358,204.781c0,6.481-4.459,11.735-9.962,11.735H28.276c-5.501,0-9.961-5.254-9.961-11.735V20.903
			c0-6.482,4.46-11.737,9.961-11.737h312.12c5.502,0,9.962,5.255,9.962,11.737V204.781z"/>
		<rect x="28.413" y="25.839" width="312.552" height="165.786"/>
		<rect x="172.947" y="203.368" fill="#6D6E71" width="23.482" height="5.167"/>
		<rect x="198.778" y="203.368" fill="#6D6E71" width="23.483" height="5.167"/>
		<rect x="146.803" y="203.368" fill="#6D6E71" width="23.482" height="5.167"/>
		<ellipse fill="#414042" cx="188.505" cy="18.794" rx="10.274" ry="5.401"/>
	</g>
	<path fill="#6D6E71" d="M349.302,326.679c0,2.452-4.46,4.44-9.963,4.44H27.218c-5.5,0-9.961-1.988-9.961-4.44v-69.552
		c0-2.452,4.46-4.439,9.961-4.439h312.121c5.503,0,9.963,1.988,9.963,4.439V326.679z"/>
	<path fill="#808285" d="M243.628,325.315c0,0.308-1.622,0.558-3.622,0.558H126.549c-2,0-3.62-0.25-3.62-0.558v-8.748
		c0-0.308,1.621-0.558,3.62-0.558h113.458c2,0,3.622,0.25,3.622,0.558V325.315z"/>
	<g>
		<path fill="#808285" d="M44.614,265.098c0,0.235-0.218,0.425-0.485,0.425H28.897c-0.268,0-0.487-0.189-0.487-0.425v-6.665
			c0-0.235,0.219-0.425,0.487-0.425h15.231c0.268,0,0.485,0.189,0.485,0.425V265.098z"/>
		<path fill="#808285" d="M63.4,265.098c0,0.235-0.218,0.425-0.487,0.425h-15.23c-0.269,0-0.485-0.189-0.485-0.425v-6.665
			c0-0.235,0.217-0.425,0.485-0.425h15.23c0.269,0,0.487,0.189,0.487,0.425V265.098z"/>
		<path fill="#808285" d="M81.561,265.098c0,0.235-0.219,0.425-0.486,0.425H65.843c-0.268,0-0.486-0.189-0.486-0.425v-6.665
			c0-0.235,0.218-0.425,0.486-0.425h15.231c0.268,0,0.486,0.189,0.486,0.425V265.098z"/>
		<path fill="#808285" d="M100.347,265.098c0,0.235-0.218,0.425-0.486,0.425H84.629c-0.268,0-0.487-0.189-0.487-0.425v-6.665
			c0-0.235,0.219-0.425,0.487-0.425h15.231c0.268,0,0.486,0.189,0.486,0.425V265.098z"/>
		<path fill="#808285" d="M118.349,265.098c0,0.235-0.217,0.425-0.485,0.425h-15.23c-0.269,0-0.487-0.189-0.487-0.425v-6.665
			c0-0.235,0.218-0.425,0.487-0.425h15.23c0.269,0,0.485,0.189,0.485,0.425V265.098z"/>
		<path fill="#808285" d="M137.136,265.098c0,0.235-0.218,0.425-0.487,0.425h-15.23c-0.269,0-0.486-0.189-0.486-0.425v-6.665
			c0-0.235,0.217-0.425,0.486-0.425h15.23c0.269,0,0.487,0.189,0.487,0.425V265.098z"/>
		<path fill="#808285" d="M155.296,265.098c0,0.235-0.219,0.425-0.487,0.425h-15.231c-0.268,0-0.485-0.189-0.485-0.425v-6.665
			c0-0.235,0.218-0.425,0.485-0.425h15.231c0.268,0,0.487,0.189,0.487,0.425V265.098z"/>
		<path fill="#808285" d="M174.081,265.098c0,0.235-0.217,0.425-0.486,0.425h-15.23c-0.269,0-0.487-0.189-0.487-0.425v-6.665
			c0-0.235,0.218-0.425,0.487-0.425h15.23c0.269,0,0.486,0.189,0.486,0.425V265.098z"/>
	</g>
	<path fill="#808285" d="M191.85,265.098c0,0.235-0.218,0.425-0.486,0.425h-15.23c-0.269,0-0.485-0.189-0.485-0.425v-6.665
		c0-0.235,0.217-0.425,0.485-0.425h15.23c0.269,0,0.486,0.189,0.486,0.425V265.098z"/>
	<path fill="#808285" d="M210.637,265.098c0,0.235-0.219,0.425-0.487,0.425h-15.231c-0.268,0-0.485-0.189-0.485-0.425v-6.665
		c0-0.235,0.218-0.425,0.485-0.425h15.231c0.268,0,0.487,0.189,0.487,0.425V265.098z"/>
	<path fill="#808285" d="M228.795,265.098c0,0.235-0.217,0.425-0.484,0.425h-15.232c-0.268,0-0.487-0.189-0.487-0.425v-6.665
		c0-0.235,0.219-0.425,0.487-0.425h15.232c0.268,0,0.484,0.189,0.484,0.425V265.098z"/>
	<path fill="#808285" d="M247.583,265.098c0,0.235-0.219,0.425-0.487,0.425h-15.231c-0.268,0-0.484-0.189-0.484-0.425v-6.665
		c0-0.235,0.217-0.425,0.484-0.425h15.231c0.268,0,0.487,0.189,0.487,0.425V265.098z"/>
	<path fill="#808285" d="M265.586,265.098c0,0.235-0.219,0.425-0.487,0.425h-15.231c-0.268,0-0.484-0.189-0.484-0.425v-6.665
		c0-0.235,0.217-0.425,0.484-0.425h15.231c0.268,0,0.487,0.189,0.487,0.425V265.098z"/>
	<path fill="#808285" d="M284.371,265.098c0,0.235-0.217,0.425-0.485,0.425h-15.231c-0.268,0-0.487-0.189-0.487-0.425v-6.665
		c0-0.235,0.219-0.425,0.487-0.425h15.231c0.268,0,0.485,0.189,0.485,0.425V265.098z"/>
	<path fill="#808285" d="M302.531,265.098c0,0.235-0.217,0.425-0.485,0.425h-15.231c-0.27,0-0.487-0.189-0.487-0.425v-6.665
		c0-0.235,0.217-0.425,0.487-0.425h15.231c0.268,0,0.485,0.189,0.485,0.425V265.098z"/>
	<path fill="#808285" d="M321.318,265.098c0,0.235-0.219,0.425-0.487,0.425h-15.229c-0.27,0-0.487-0.189-0.487-0.425v-6.665
		c0-0.235,0.217-0.425,0.487-0.425h15.229c0.268,0,0.487,0.189,0.487,0.425V265.098z"/>
	<g>
		<g>
			<path fill="#808285" d="M44.503,277.812c0,0.322-0.142,0.582-0.318,0.582h-9.966c-0.175,0-0.317-0.26-0.317-0.582v-9.125
				c0-0.32,0.143-0.581,0.317-0.581h9.966c0.176,0,0.318,0.26,0.318,0.581V277.812z"/>
			<path fill="#808285" d="M56.796,277.812c0,0.322-0.142,0.582-0.318,0.582h-9.966c-0.175,0-0.318-0.26-0.318-0.582v-9.125
				c0-0.32,0.144-0.581,0.318-0.581h9.966c0.176,0,0.318,0.26,0.318,0.581V277.812z"/>
			<path fill="#808285" d="M68.936,277.812c0,0.322-0.144,0.582-0.319,0.582H58.65c-0.175,0-0.317-0.26-0.317-0.582v-9.125
				c0-0.32,0.143-0.581,0.317-0.581h9.967c0.175,0,0.319,0.26,0.319,0.581V277.812z"/>
			<path fill="#808285" d="M80.823,277.812c0,0.322-0.143,0.582-0.318,0.582h-9.965c-0.176,0-0.317-0.26-0.317-0.582v-9.125
				c0-0.32,0.142-0.581,0.317-0.581h9.965c0.176,0,0.318,0.26,0.318,0.581V277.812z"/>
			<path fill="#808285" d="M93.116,277.812c0,0.322-0.143,0.582-0.317,0.582h-9.966c-0.176,0-0.319-0.26-0.319-0.582v-9.125
				c0-0.32,0.143-0.581,0.319-0.581h9.966c0.175,0,0.317,0.26,0.317,0.581V277.812z"/>
			<path fill="#808285" d="M105.255,277.812c0,0.322-0.144,0.582-0.318,0.582H94.97c-0.176,0-0.317-0.26-0.317-0.582v-9.125
				c0-0.32,0.142-0.581,0.317-0.581h9.967c0.175,0,0.318,0.26,0.318,0.581V277.812z"/>
		</g>
		<g>
			<path fill="#808285" d="M117.55,277.812c0,0.322-0.142,0.582-0.319,0.582h-9.965c-0.175,0-0.317-0.26-0.317-0.582v-9.125
				c0-0.32,0.143-0.581,0.317-0.581h9.965c0.177,0,0.319,0.26,0.319,0.581V277.812z"/>
			<path fill="#808285" d="M129.843,277.812c0,0.322-0.142,0.582-0.318,0.582h-9.966c-0.175,0-0.318-0.26-0.318-0.582v-9.125
				c0-0.32,0.144-0.581,0.318-0.581h9.966c0.176,0,0.318,0.26,0.318,0.581V277.812z"/>
			<path fill="#808285" d="M141.982,277.812c0,0.322-0.143,0.582-0.318,0.582h-9.967c-0.175,0-0.317-0.26-0.317-0.582v-9.125
				c0-0.32,0.143-0.581,0.317-0.581h9.967c0.175,0,0.318,0.26,0.318,0.581V277.812z"/>
			<path fill="#808285" d="M153.87,277.812c0,0.322-0.143,0.582-0.318,0.582h-9.965c-0.176,0-0.319-0.26-0.319-0.582v-9.125
				c0-0.32,0.143-0.581,0.319-0.581h9.965c0.176,0,0.318,0.26,0.318,0.581V277.812z"/>
			<path fill="#808285" d="M166.163,277.812c0,0.322-0.143,0.582-0.317,0.582h-9.968c-0.175,0-0.317-0.26-0.317-0.582v-9.125
				c0-0.32,0.143-0.581,0.317-0.581h9.968c0.175,0,0.317,0.26,0.317,0.581V277.812z"/>
			<path fill="#808285" d="M178.302,277.812c0,0.322-0.144,0.582-0.318,0.582h-9.967c-0.176,0-0.317-0.26-0.317-0.582v-9.125
				c0-0.32,0.142-0.581,0.317-0.581h9.967c0.175,0,0.318,0.26,0.318,0.581V277.812z"/>
		</g>
		<g>
			<path fill="#808285" d="M190.419,277.812c0,0.322-0.143,0.582-0.319,0.582h-9.965c-0.176,0-0.317-0.26-0.317-0.582v-9.125
				c0-0.32,0.142-0.581,0.317-0.581h9.965c0.176,0,0.319,0.26,0.319,0.581V277.812z"/>
			<path fill="#808285" d="M202.712,277.812c0,0.322-0.143,0.582-0.317,0.582h-9.967c-0.176,0-0.318-0.26-0.318-0.582v-9.125
				c0-0.32,0.143-0.581,0.318-0.581h9.967c0.175,0,0.317,0.26,0.317,0.581V277.812z"/>
			<path fill="#808285" d="M214.852,277.812c0,0.322-0.144,0.582-0.319,0.582h-9.966c-0.176,0-0.317-0.26-0.317-0.582v-9.125
				c0-0.32,0.142-0.581,0.317-0.581h9.966c0.175,0,0.319,0.26,0.319,0.581V277.812z"/>
			<path fill="#808285" d="M226.74,277.812c0,0.322-0.144,0.582-0.319,0.582h-9.966c-0.176,0-0.318-0.26-0.318-0.582v-9.125
				c0-0.32,0.143-0.581,0.318-0.581h9.966c0.175,0,0.319,0.26,0.319,0.581V277.812z"/>
			<path fill="#808285" d="M239.033,277.812c0,0.322-0.144,0.582-0.319,0.582h-9.967c-0.175,0-0.316-0.26-0.316-0.582v-9.125
				c0-0.32,0.142-0.581,0.316-0.581h9.967c0.175,0,0.319,0.26,0.319,0.581V277.812z"/>
			<path fill="#808285" d="M251.171,277.812c0,0.322-0.144,0.582-0.318,0.582h-9.965c-0.177,0-0.319-0.26-0.319-0.582v-9.125
				c0-0.32,0.142-0.581,0.319-0.581h9.965c0.175,0,0.318,0.26,0.318,0.581V277.812z"/>
		</g>
		<g>
			<path fill="#808285" d="M263.214,277.812c0,0.322-0.142,0.582-0.316,0.582h-9.965c-0.177,0-0.318-0.26-0.318-0.582v-9.125
				c0-0.32,0.142-0.581,0.318-0.581h9.965c0.175,0,0.316,0.26,0.316,0.581V277.812z"/>
			<path fill="#808285" d="M275.509,277.812c0,0.322-0.144,0.582-0.319,0.582h-9.967c-0.175,0-0.316-0.26-0.316-0.582v-9.125
				c0-0.32,0.142-0.581,0.316-0.581h9.967c0.175,0,0.319,0.26,0.319,0.581V277.812z"/>
			<path fill="#808285" d="M287.647,277.812c0,0.322-0.144,0.582-0.318,0.582h-9.965c-0.177,0-0.319-0.26-0.319-0.582v-9.125
				c0-0.32,0.142-0.581,0.319-0.581h9.965c0.175,0,0.318,0.26,0.318,0.581V277.812z"/>
			<path fill="#808285" d="M299.535,277.812c0,0.322-0.144,0.582-0.318,0.582h-9.965c-0.175,0-0.319-0.26-0.319-0.582v-9.125
				c0-0.32,0.144-0.581,0.319-0.581h9.965c0.175,0,0.318,0.26,0.318,0.581V277.812z"/>
			<path fill="#808285" d="M311.828,277.812c0,0.322-0.144,0.582-0.318,0.582h-9.965c-0.177,0-0.319-0.26-0.319-0.582v-9.125
				c0-0.32,0.142-0.581,0.319-0.581h9.965c0.175,0,0.318,0.26,0.318,0.581V277.812z"/>
			<path fill="#808285" d="M323.966,277.812c0,0.322-0.142,0.582-0.319,0.582h-9.965c-0.175,0-0.318-0.26-0.318-0.582v-9.125
				c0-0.32,0.144-0.581,0.318-0.581h9.965c0.177,0,0.319,0.26,0.319,0.581V277.812z"/>
		</g>
	</g>
	<path fill="#808285" d="M340.965,265.098c0,0.235-0.219,0.425-0.487,0.425h-15.231c-0.268,0-0.486-0.189-0.486-0.425v-6.665
		c0-0.235,0.219-0.425,0.486-0.425h15.231c0.268,0,0.487,0.189,0.487,0.425V265.098z"/>
	<g>
		<g>
			<path fill="#808285" d="M44.503,289.364c0,0.323-0.142,0.582-0.318,0.582h-9.966c-0.175,0-0.317-0.259-0.317-0.582v-9.125
				c0-0.32,0.143-0.581,0.317-0.581h9.966c0.176,0,0.318,0.26,0.318,0.581V289.364z"/>
			<path fill="#808285" d="M56.796,289.364c0,0.323-0.142,0.582-0.318,0.582h-9.966c-0.175,0-0.318-0.259-0.318-0.582v-9.125
				c0-0.32,0.144-0.581,0.318-0.581h9.966c0.176,0,0.318,0.26,0.318,0.581V289.364z"/>
			<path fill="#808285" d="M68.936,289.364c0,0.323-0.144,0.582-0.319,0.582H58.65c-0.175,0-0.317-0.259-0.317-0.582v-9.125
				c0-0.32,0.143-0.581,0.317-0.581h9.967c0.175,0,0.319,0.26,0.319,0.581V289.364z"/>
			<path fill="#808285" d="M80.823,289.364c0,0.323-0.143,0.582-0.318,0.582h-9.965c-0.176,0-0.317-0.259-0.317-0.582v-9.125
				c0-0.32,0.142-0.581,0.317-0.581h9.965c0.176,0,0.318,0.26,0.318,0.581V289.364z"/>
			<path fill="#808285" d="M93.116,289.364c0,0.323-0.143,0.582-0.317,0.582h-9.966c-0.176,0-0.319-0.259-0.319-0.582v-9.125
				c0-0.32,0.143-0.581,0.319-0.581h9.966c0.175,0,0.317,0.26,0.317,0.581V289.364z"/>
			<path fill="#808285" d="M105.255,289.364c0,0.323-0.144,0.582-0.318,0.582H94.97c-0.176,0-0.317-0.259-0.317-0.582v-9.125
				c0-0.32,0.142-0.581,0.317-0.581h9.967c0.175,0,0.318,0.26,0.318,0.581V289.364z"/>
		</g>
		<g>
			<path fill="#808285" d="M117.55,289.364c0,0.323-0.142,0.582-0.319,0.582h-9.965c-0.175,0-0.317-0.259-0.317-0.582v-9.125
				c0-0.32,0.143-0.581,0.317-0.581h9.965c0.177,0,0.319,0.26,0.319,0.581V289.364z"/>
			<path fill="#808285" d="M129.843,289.364c0,0.323-0.142,0.582-0.318,0.582h-9.966c-0.175,0-0.318-0.259-0.318-0.582v-9.125
				c0-0.32,0.144-0.581,0.318-0.581h9.966c0.176,0,0.318,0.26,0.318,0.581V289.364z"/>
			<path fill="#808285" d="M141.982,289.364c0,0.323-0.143,0.582-0.318,0.582h-9.967c-0.175,0-0.317-0.259-0.317-0.582v-9.125
				c0-0.32,0.143-0.581,0.317-0.581h9.967c0.175,0,0.318,0.26,0.318,0.581V289.364z"/>
			<path fill="#808285" d="M153.87,289.364c0,0.323-0.143,0.582-0.318,0.582h-9.965c-0.176,0-0.319-0.259-0.319-0.582v-9.125
				c0-0.32,0.143-0.581,0.319-0.581h9.965c0.176,0,0.318,0.26,0.318,0.581V289.364z"/>
			<path fill="#808285" d="M166.163,289.364c0,0.323-0.143,0.582-0.317,0.582h-9.968c-0.175,0-0.317-0.259-0.317-0.582v-9.125
				c0-0.32,0.143-0.581,0.317-0.581h9.968c0.175,0,0.317,0.26,0.317,0.581V289.364z"/>
			<path fill="#808285" d="M178.302,289.364c0,0.323-0.144,0.582-0.318,0.582h-9.967c-0.176,0-0.317-0.259-0.317-0.582v-9.125
				c0-0.32,0.142-0.581,0.317-0.581h9.967c0.175,0,0.318,0.26,0.318,0.581V289.364z"/>
		</g>
		<g>
			<path fill="#808285" d="M190.419,289.364c0,0.323-0.143,0.582-0.319,0.582h-9.965c-0.176,0-0.317-0.259-0.317-0.582v-9.125
				c0-0.32,0.142-0.581,0.317-0.581h9.965c0.176,0,0.319,0.26,0.319,0.581V289.364z"/>
			<path fill="#808285" d="M202.712,289.364c0,0.323-0.143,0.582-0.317,0.582h-9.967c-0.176,0-0.318-0.259-0.318-0.582v-9.125
				c0-0.32,0.143-0.581,0.318-0.581h9.967c0.175,0,0.317,0.26,0.317,0.581V289.364z"/>
			<path fill="#808285" d="M214.852,289.364c0,0.323-0.144,0.582-0.319,0.582h-9.966c-0.176,0-0.317-0.259-0.317-0.582v-9.125
				c0-0.32,0.142-0.581,0.317-0.581h9.966c0.175,0,0.319,0.26,0.319,0.581V289.364z"/>
			<path fill="#808285" d="M226.74,289.364c0,0.323-0.144,0.582-0.319,0.582h-9.966c-0.176,0-0.318-0.259-0.318-0.582v-9.125
				c0-0.32,0.143-0.581,0.318-0.581h9.966c0.175,0,0.319,0.26,0.319,0.581V289.364z"/>
			<path fill="#808285" d="M239.033,289.364c0,0.323-0.144,0.582-0.319,0.582h-9.967c-0.175,0-0.316-0.259-0.316-0.582v-9.125
				c0-0.32,0.142-0.581,0.316-0.581h9.967c0.175,0,0.319,0.26,0.319,0.581V289.364z"/>
			<path fill="#808285" d="M251.171,289.364c0,0.323-0.144,0.582-0.318,0.582h-9.965c-0.177,0-0.319-0.259-0.319-0.582v-9.125
				c0-0.32,0.142-0.581,0.319-0.581h9.965c0.175,0,0.318,0.26,0.318,0.581V289.364z"/>
		</g>
		<g>
			<path fill="#808285" d="M263.214,289.364c0,0.323-0.142,0.582-0.316,0.582h-9.965c-0.177,0-0.318-0.259-0.318-0.582v-9.125
				c0-0.32,0.142-0.581,0.318-0.581h9.965c0.175,0,0.316,0.26,0.316,0.581V289.364z"/>
			<path fill="#808285" d="M275.509,289.364c0,0.323-0.144,0.582-0.319,0.582h-9.967c-0.175,0-0.316-0.259-0.316-0.582v-9.125
				c0-0.32,0.142-0.581,0.316-0.581h9.967c0.175,0,0.319,0.26,0.319,0.581V289.364z"/>
			<path fill="#808285" d="M287.647,289.364c0,0.323-0.144,0.582-0.318,0.582h-9.965c-0.177,0-0.319-0.259-0.319-0.582v-9.125
				c0-0.32,0.142-0.581,0.319-0.581h9.965c0.175,0,0.318,0.26,0.318,0.581V289.364z"/>
			<path fill="#808285" d="M299.535,289.364c0,0.323-0.144,0.582-0.318,0.582h-9.965c-0.175,0-0.319-0.259-0.319-0.582v-9.125
				c0-0.32,0.144-0.581,0.319-0.581h9.965c0.175,0,0.318,0.26,0.318,0.581V289.364z"/>
			<path fill="#808285" d="M311.828,289.364c0,0.323-0.144,0.582-0.318,0.582h-9.965c-0.177,0-0.319-0.259-0.319-0.582v-9.125
				c0-0.32,0.142-0.581,0.319-0.581h9.965c0.175,0,0.318,0.26,0.318,0.581V289.364z"/>
			<path fill="#808285" d="M323.966,289.364c0,0.323-0.142,0.582-0.319,0.582h-9.965c-0.175,0-0.318-0.259-0.318-0.582v-9.125
				c0-0.32,0.144-0.581,0.318-0.581h9.965c0.177,0,0.319,0.26,0.319,0.581V289.364z"/>
		</g>
	</g>
	<g>
		<g>
			<path fill="#808285" d="M44.503,301.06c0,0.322-0.142,0.582-0.318,0.582h-9.966c-0.175,0-0.317-0.26-0.317-0.582v-9.126
				c0-0.319,0.143-0.58,0.317-0.58h9.966c0.176,0,0.318,0.261,0.318,0.58V301.06z"/>
			<path fill="#808285" d="M56.796,301.06c0,0.322-0.142,0.582-0.318,0.582h-9.966c-0.175,0-0.318-0.26-0.318-0.582v-9.126
				c0-0.319,0.144-0.58,0.318-0.58h9.966c0.176,0,0.318,0.261,0.318,0.58V301.06z"/>
			<path fill="#808285" d="M68.936,301.06c0,0.322-0.144,0.582-0.319,0.582H58.65c-0.175,0-0.317-0.26-0.317-0.582v-9.126
				c0-0.319,0.143-0.58,0.317-0.58h9.967c0.175,0,0.319,0.261,0.319,0.58V301.06z"/>
			<path fill="#808285" d="M80.823,301.06c0,0.322-0.143,0.582-0.318,0.582h-9.965c-0.176,0-0.317-0.26-0.317-0.582v-9.126
				c0-0.319,0.142-0.58,0.317-0.58h9.965c0.176,0,0.318,0.261,0.318,0.58V301.06z"/>
			<path fill="#808285" d="M93.116,301.06c0,0.322-0.143,0.582-0.317,0.582h-9.966c-0.176,0-0.319-0.26-0.319-0.582v-9.126
				c0-0.319,0.143-0.58,0.319-0.58h9.966c0.175,0,0.317,0.261,0.317,0.58V301.06z"/>
			<path fill="#808285" d="M105.255,301.06c0,0.322-0.144,0.582-0.318,0.582H94.97c-0.176,0-0.317-0.26-0.317-0.582v-9.126
				c0-0.319,0.142-0.58,0.317-0.58h9.967c0.175,0,0.318,0.261,0.318,0.58V301.06z"/>
		</g>
		<g>
			<path fill="#808285" d="M117.55,301.06c0,0.322-0.142,0.582-0.319,0.582h-9.965c-0.175,0-0.317-0.26-0.317-0.582v-9.126
				c0-0.319,0.143-0.58,0.317-0.58h9.965c0.177,0,0.319,0.261,0.319,0.58V301.06z"/>
			<path fill="#808285" d="M129.843,301.06c0,0.322-0.142,0.582-0.318,0.582h-9.966c-0.175,0-0.318-0.26-0.318-0.582v-9.126
				c0-0.319,0.144-0.58,0.318-0.58h9.966c0.176,0,0.318,0.261,0.318,0.58V301.06z"/>
			<path fill="#808285" d="M141.982,301.06c0,0.322-0.143,0.582-0.318,0.582h-9.967c-0.175,0-0.317-0.26-0.317-0.582v-9.126
				c0-0.319,0.143-0.58,0.317-0.58h9.967c0.175,0,0.318,0.261,0.318,0.58V301.06z"/>
			<path fill="#808285" d="M153.87,301.06c0,0.322-0.143,0.582-0.318,0.582h-9.965c-0.176,0-0.319-0.26-0.319-0.582v-9.126
				c0-0.319,0.143-0.58,0.319-0.58h9.965c0.176,0,0.318,0.261,0.318,0.58V301.06z"/>
			<path fill="#808285" d="M166.163,301.06c0,0.322-0.143,0.582-0.317,0.582h-9.968c-0.175,0-0.317-0.26-0.317-0.582v-9.126
				c0-0.319,0.143-0.58,0.317-0.58h9.968c0.175,0,0.317,0.261,0.317,0.58V301.06z"/>
			<path fill="#808285" d="M178.302,301.06c0,0.322-0.144,0.582-0.318,0.582h-9.967c-0.176,0-0.317-0.26-0.317-0.582v-9.126
				c0-0.319,0.142-0.58,0.317-0.58h9.967c0.175,0,0.318,0.261,0.318,0.58V301.06z"/>
		</g>
		<g>
			<path fill="#808285" d="M190.419,301.06c0,0.322-0.143,0.582-0.319,0.582h-9.965c-0.176,0-0.317-0.26-0.317-0.582v-9.126
				c0-0.319,0.142-0.58,0.317-0.58h9.965c0.176,0,0.319,0.261,0.319,0.58V301.06z"/>
			<path fill="#808285" d="M202.712,301.06c0,0.322-0.143,0.582-0.317,0.582h-9.967c-0.176,0-0.318-0.26-0.318-0.582v-9.126
				c0-0.319,0.143-0.58,0.318-0.58h9.967c0.175,0,0.317,0.261,0.317,0.58V301.06z"/>
			<path fill="#808285" d="M214.852,301.06c0,0.322-0.144,0.582-0.319,0.582h-9.966c-0.176,0-0.317-0.26-0.317-0.582v-9.126
				c0-0.319,0.142-0.58,0.317-0.58h9.966c0.175,0,0.319,0.261,0.319,0.58V301.06z"/>
			<path fill="#808285" d="M226.74,301.06c0,0.322-0.144,0.582-0.319,0.582h-9.966c-0.176,0-0.318-0.26-0.318-0.582v-9.126
				c0-0.319,0.143-0.58,0.318-0.58h9.966c0.175,0,0.319,0.261,0.319,0.58V301.06z"/>
			<path fill="#808285" d="M239.033,301.06c0,0.322-0.144,0.582-0.319,0.582h-9.967c-0.175,0-0.316-0.26-0.316-0.582v-9.126
				c0-0.319,0.142-0.58,0.316-0.58h9.967c0.175,0,0.319,0.261,0.319,0.58V301.06z"/>
			<path fill="#808285" d="M251.171,301.06c0,0.322-0.144,0.582-0.318,0.582h-9.965c-0.177,0-0.319-0.26-0.319-0.582v-9.126
				c0-0.319,0.142-0.58,0.319-0.58h9.965c0.175,0,0.318,0.261,0.318,0.58V301.06z"/>
		</g>
		<g>
			<path fill="#808285" d="M263.214,301.06c0,0.322-0.142,0.582-0.316,0.582h-9.965c-0.177,0-0.318-0.26-0.318-0.582v-9.126
				c0-0.319,0.142-0.58,0.318-0.58h9.965c0.175,0,0.316,0.261,0.316,0.58V301.06z"/>
			<path fill="#808285" d="M275.509,301.06c0,0.322-0.144,0.582-0.319,0.582h-9.967c-0.175,0-0.316-0.26-0.316-0.582v-9.126
				c0-0.319,0.142-0.58,0.316-0.58h9.967c0.175,0,0.319,0.261,0.319,0.58V301.06z"/>
			<path fill="#808285" d="M287.647,301.06c0,0.322-0.144,0.582-0.318,0.582h-9.965c-0.177,0-0.319-0.26-0.319-0.582v-9.126
				c0-0.319,0.142-0.58,0.319-0.58h9.965c0.175,0,0.318,0.261,0.318,0.58V301.06z"/>
			<path fill="#808285" d="M299.535,301.06c0,0.322-0.144,0.582-0.318,0.582h-9.965c-0.175,0-0.319-0.26-0.319-0.582v-9.126
				c0-0.319,0.144-0.58,0.319-0.58h9.965c0.175,0,0.318,0.261,0.318,0.58V301.06z"/>
			<path fill="#808285" d="M311.828,301.06c0,0.322-0.144,0.582-0.318,0.582h-9.965c-0.177,0-0.319-0.26-0.319-0.582v-9.126
				c0-0.319,0.142-0.58,0.319-0.58h9.965c0.175,0,0.318,0.261,0.318,0.58V301.06z"/>
			<path fill="#808285" d="M323.966,301.06c0,0.322-0.142,0.582-0.319,0.582h-9.965c-0.175,0-0.318-0.26-0.318-0.582v-9.126
				c0-0.319,0.144-0.58,0.318-0.58h9.965c0.177,0,0.319,0.261,0.319,0.58V301.06z"/>
		</g>
	</g>
	<g>
		<g>
			<path fill="#808285" d="M44.503,312.656c0,0.322-0.142,0.582-0.318,0.582h-9.966c-0.175,0-0.317-0.26-0.317-0.582v-9.126
				c0-0.32,0.143-0.581,0.317-0.581h9.966c0.176,0,0.318,0.26,0.318,0.581V312.656z"/>
			<path fill="#808285" d="M56.796,312.656c0,0.322-0.142,0.582-0.318,0.582h-9.966c-0.175,0-0.318-0.26-0.318-0.582v-9.126
				c0-0.32,0.144-0.581,0.318-0.581h9.966c0.176,0,0.318,0.26,0.318,0.581V312.656z"/>
			<path fill="#808285" d="M68.936,312.656c0,0.322-0.144,0.582-0.319,0.582H58.65c-0.175,0-0.317-0.26-0.317-0.582v-9.126
				c0-0.32,0.143-0.581,0.317-0.581h9.967c0.175,0,0.319,0.26,0.319,0.581V312.656z"/>
			<path fill="#808285" d="M80.823,312.656c0,0.322-0.143,0.582-0.318,0.582h-9.965c-0.176,0-0.317-0.26-0.317-0.582v-9.126
				c0-0.32,0.142-0.581,0.317-0.581h9.965c0.176,0,0.318,0.26,0.318,0.581V312.656z"/>
			<path fill="#808285" d="M93.116,312.656c0,0.322-0.143,0.582-0.317,0.582h-9.966c-0.176,0-0.319-0.26-0.319-0.582v-9.126
				c0-0.32,0.143-0.581,0.319-0.581h9.966c0.175,0,0.317,0.26,0.317,0.581V312.656z"/>
			<path fill="#808285" d="M105.255,312.656c0,0.322-0.144,0.582-0.318,0.582H94.97c-0.176,0-0.317-0.26-0.317-0.582v-9.126
				c0-0.32,0.142-0.581,0.317-0.581h9.967c0.175,0,0.318,0.26,0.318,0.581V312.656z"/>
		</g>
		<g>
			<path fill="#808285" d="M117.55,312.656c0,0.322-0.142,0.582-0.319,0.582h-9.965c-0.175,0-0.317-0.26-0.317-0.582v-9.126
				c0-0.32,0.143-0.581,0.317-0.581h9.965c0.177,0,0.319,0.26,0.319,0.581V312.656z"/>
			<path fill="#808285" d="M129.843,312.656c0,0.322-0.142,0.582-0.318,0.582h-9.966c-0.175,0-0.318-0.26-0.318-0.582v-9.126
				c0-0.32,0.144-0.581,0.318-0.581h9.966c0.176,0,0.318,0.26,0.318,0.581V312.656z"/>
			<path fill="#808285" d="M141.982,312.656c0,0.322-0.143,0.582-0.318,0.582h-9.967c-0.175,0-0.317-0.26-0.317-0.582v-9.126
				c0-0.32,0.143-0.581,0.317-0.581h9.967c0.175,0,0.318,0.26,0.318,0.581V312.656z"/>
			<path fill="#808285" d="M153.87,312.656c0,0.322-0.143,0.582-0.318,0.582h-9.965c-0.176,0-0.319-0.26-0.319-0.582v-9.126
				c0-0.32,0.143-0.581,0.319-0.581h9.965c0.176,0,0.318,0.26,0.318,0.581V312.656z"/>
			<path fill="#808285" d="M166.163,312.656c0,0.322-0.143,0.582-0.317,0.582h-9.968c-0.175,0-0.317-0.26-0.317-0.582v-9.126
				c0-0.32,0.143-0.581,0.317-0.581h9.968c0.175,0,0.317,0.26,0.317,0.581V312.656z"/>
			<path fill="#808285" d="M178.302,312.656c0,0.322-0.144,0.582-0.318,0.582h-9.967c-0.176,0-0.317-0.26-0.317-0.582v-9.126
				c0-0.32,0.142-0.581,0.317-0.581h9.967c0.175,0,0.318,0.26,0.318,0.581V312.656z"/>
		</g>
		<g>
			<path fill="#808285" d="M190.419,312.656c0,0.322-0.143,0.582-0.319,0.582h-9.965c-0.176,0-0.317-0.26-0.317-0.582v-9.126
				c0-0.32,0.142-0.581,0.317-0.581h9.965c0.176,0,0.319,0.26,0.319,0.581V312.656z"/>
			<path fill="#808285" d="M202.712,312.656c0,0.322-0.143,0.582-0.317,0.582h-9.967c-0.176,0-0.318-0.26-0.318-0.582v-9.126
				c0-0.32,0.143-0.581,0.318-0.581h9.967c0.175,0,0.317,0.26,0.317,0.581V312.656z"/>
			<path fill="#808285" d="M214.852,312.656c0,0.322-0.144,0.582-0.319,0.582h-9.966c-0.176,0-0.317-0.26-0.317-0.582v-9.126
				c0-0.32,0.142-0.581,0.317-0.581h9.966c0.175,0,0.319,0.26,0.319,0.581V312.656z"/>
			<path fill="#808285" d="M226.74,312.656c0,0.322-0.144,0.582-0.319,0.582h-9.966c-0.176,0-0.318-0.26-0.318-0.582v-9.126
				c0-0.32,0.143-0.581,0.318-0.581h9.966c0.175,0,0.319,0.26,0.319,0.581V312.656z"/>
			<path fill="#808285" d="M239.033,312.656c0,0.322-0.144,0.582-0.319,0.582h-9.967c-0.175,0-0.316-0.26-0.316-0.582v-9.126
				c0-0.32,0.142-0.581,0.316-0.581h9.967c0.175,0,0.319,0.26,0.319,0.581V312.656z"/>
			<path fill="#808285" d="M251.171,312.656c0,0.322-0.144,0.582-0.318,0.582h-9.965c-0.177,0-0.319-0.26-0.319-0.582v-9.126
				c0-0.32,0.142-0.581,0.319-0.581h9.965c0.175,0,0.318,0.26,0.318,0.581V312.656z"/>
		</g>
		<g>
			<path fill="#808285" d="M263.214,312.656c0,0.322-0.142,0.582-0.316,0.582h-9.965c-0.177,0-0.318-0.26-0.318-0.582v-9.126
				c0-0.32,0.142-0.581,0.318-0.581h9.965c0.175,0,0.316,0.26,0.316,0.581V312.656z"/>
			<path fill="#808285" d="M275.509,312.656c0,0.322-0.144,0.582-0.319,0.582h-9.967c-0.175,0-0.316-0.26-0.316-0.582v-9.126
				c0-0.32,0.142-0.581,0.316-0.581h9.967c0.175,0,0.319,0.26,0.319,0.581V312.656z"/>
			<path fill="#808285" d="M287.645,312.656c0,0.322-0.142,0.582-0.316,0.582h-9.965c-0.177,0-0.319-0.26-0.319-0.582v-9.126
				c0-0.32,0.142-0.581,0.319-0.581h9.965c0.175,0,0.316,0.26,0.316,0.581V312.656z"/>
			<path fill="#808285" d="M299.533,312.656c0,0.322-0.142,0.582-0.316,0.582h-9.965c-0.177,0-0.319-0.26-0.319-0.582v-9.126
				c0-0.32,0.142-0.581,0.319-0.581h9.965c0.175,0,0.316,0.26,0.316,0.581V312.656z"/>
			<path fill="#808285" d="M311.828,312.656c0,0.322-0.144,0.582-0.318,0.582h-9.968c-0.175,0-0.316-0.26-0.316-0.582v-9.126
				c0-0.32,0.142-0.581,0.316-0.581h9.968c0.175,0,0.318,0.26,0.318,0.581V312.656z"/>
			<path fill="#808285" d="M323.966,312.656c0,0.322-0.142,0.582-0.319,0.582h-9.965c-0.177,0-0.318-0.26-0.318-0.582v-9.126
				c0-0.32,0.142-0.581,0.318-0.581h9.965c0.177,0,0.319,0.26,0.319,0.581V312.656z"/>
		</g>
	</g>
	<g>
		<path fill="#808285" d="M36.55,324.274c0,0.234-0.167,0.424-0.371,0.424H24.556c-0.205,0-0.371-0.189-0.371-0.424v-6.666
			c0-0.234,0.166-0.425,0.371-0.425h11.624c0.204,0,0.371,0.19,0.371,0.425V324.274z"/>
		<path fill="#808285" d="M50.886,324.274c0,0.234-0.166,0.424-0.371,0.424H38.892c-0.205,0-0.372-0.189-0.372-0.424v-6.666
			c0-0.234,0.167-0.425,0.372-0.425h11.624c0.205,0,0.371,0.19,0.371,0.425V324.274z"/>
		<path fill="#808285" d="M64.746,324.274c0,0.234-0.167,0.424-0.372,0.424H52.751c-0.206,0-0.372-0.189-0.372-0.424v-6.666
			c0-0.234,0.166-0.425,0.372-0.425h11.623c0.205,0,0.372,0.19,0.372,0.425V324.274z"/>
		<path fill="#808285" d="M79.081,324.274c0,0.234-0.166,0.424-0.37,0.424H67.086c-0.204,0-0.371-0.189-0.371-0.424v-6.666
			c0-0.234,0.167-0.425,0.371-0.425h11.625c0.204,0,0.37,0.19,0.37,0.425V324.274z"/>
		<path fill="#808285" d="M92.82,324.274c0,0.234-0.166,0.424-0.372,0.424H80.826c-0.205,0-0.372-0.189-0.372-0.424v-6.666
			c0-0.234,0.167-0.425,0.372-0.425h11.623c0.206,0,0.372,0.19,0.372,0.425V324.274z"/>
		<path fill="#808285" d="M107.157,324.274c0,0.234-0.167,0.424-0.371,0.424H95.163c-0.205,0-0.371-0.189-0.371-0.424v-6.666
			c0-0.234,0.166-0.425,0.371-0.425h11.624c0.204,0,0.371,0.19,0.371,0.425V324.274z"/>
		<path fill="#808285" d="M121.015,324.274c0,0.234-0.166,0.424-0.371,0.424h-11.624c-0.203,0-0.37-0.189-0.37-0.424v-6.666
			c0-0.234,0.167-0.425,0.37-0.425h11.624c0.205,0,0.371,0.19,0.371,0.425V324.274z"/>
		<path fill="#808285" d="M135.353,324.274c0,0.234-0.167,0.424-0.372,0.424h-11.623c-0.206,0-0.372-0.189-0.372-0.424v-6.666
			c0-0.234,0.166-0.425,0.372-0.425h11.623c0.205,0,0.372,0.19,0.372,0.425V324.274z"/>
	</g>
	<path fill="#808285" d="M258.006,324.274c0,0.234-0.166,0.424-0.37,0.424h-11.623c-0.206,0-0.372-0.189-0.372-0.424v-6.666
		c0-0.234,0.166-0.425,0.372-0.425h11.623c0.204,0,0.37,0.19,0.37,0.425V324.274z"/>
	<path fill="#808285" d="M272.343,324.274c0,0.234-0.166,0.424-0.372,0.424h-11.623c-0.204,0-0.372-0.189-0.372-0.424v-6.666
		c0-0.234,0.168-0.425,0.372-0.425h11.623c0.206,0,0.372,0.19,0.372,0.425V324.274z"/>
	<path fill="#808285" d="M286.202,324.274c0,0.234-0.168,0.424-0.372,0.424h-11.623c-0.206,0-0.372-0.189-0.372-0.424v-6.666
		c0-0.234,0.166-0.425,0.372-0.425h11.623c0.204,0,0.372,0.19,0.372,0.425V324.274z"/>
	<path fill="#808285" d="M300.538,324.274c0,0.234-0.166,0.424-0.37,0.424h-11.625c-0.204,0-0.372-0.189-0.372-0.424v-6.666
		c0-0.234,0.168-0.425,0.372-0.425h11.625c0.204,0,0.37,0.19,0.37,0.425V324.274z"/>
	<path fill="#808285" d="M314.277,324.274c0,0.234-0.166,0.424-0.372,0.424h-11.623c-0.204,0-0.372-0.189-0.372-0.424v-6.666
		c0-0.234,0.168-0.425,0.372-0.425h11.623c0.206,0,0.372,0.19,0.372,0.425V324.274z"/>
	<path fill="#808285" d="M328.615,324.274c0,0.234-0.168,0.424-0.372,0.424h-11.625c-0.204,0-0.369-0.189-0.369-0.424v-6.666
		c0-0.234,0.166-0.425,0.369-0.425h11.625c0.204,0,0.372,0.19,0.372,0.425V324.274z"/>
	<path fill="#808285" d="M342.472,324.274c0,0.234-0.166,0.424-0.37,0.424h-11.625c-0.203,0-0.369-0.189-0.369-0.424v-6.666
		c0-0.234,0.166-0.425,0.369-0.425h11.625c0.204,0,0.37,0.19,0.37,0.425V324.274z"/>
</g>
</svg>
