<?xml version="1.0" encoding="utf-8"?>
<!-- Generator: Adobe Illustrator 16.0.3, SVG Export Plug-In . SVG Version: 6.00 Build 0)  -->
<!DOCTYPE svg PUBLIC "-//W3C//DTD SVG 1.1//EN" "http://www.w3.org/Graphics/SVG/1.1/DTD/svg11.dtd">
<svg version="1.1" id="Layer_1" xmlns="http://www.w3.org/2000/svg" xmlns:xlink="http://www.w3.org/1999/xlink" x="0px" y="0px"
	 width="792px" height="612px" viewBox="0 0 792 612" enable-background="new 0 0 792 612" xml:space="preserve">
<g>
	<path fill="#808285" d="M75.497,119.42c0,3.466-2.56,6.276-5.716,6.276H16.202c-3.156,0-5.715-2.81-5.715-6.276V15.192
		c0-3.467,2.559-6.277,5.715-6.277h53.579c3.156,0,5.716,2.81,5.716,6.277V119.42z"/>
	<path fill="#A7A9AC" d="M78.774,119.42c0,3.466-2.559,6.276-5.715,6.276H19.48c-3.156,0-5.715-2.81-5.715-6.276V15.192
		c0-3.467,2.559-6.277,5.715-6.277h53.579c3.156,0,5.715,2.81,5.715,6.277V119.42z"/>
	<rect x="18.682" y="20.307" width="55.176" height="92.245"/>
	<circle fill="#808285" cx="46.27" cy="120.056" r="4.507"/>
	<ellipse fill="#414042" cx="46.27" cy="14.48" rx="6.009" ry="2.186"/>
</g>
</svg>
