<?xml version="1.0" encoding="utf-8"?>
<!-- Generator: Adobe Illustrator 16.0.3, SVG Export Plug-In . SVG Version: 6.00 Build 0)  -->
<!DOCTYPE svg PUBLIC "-//W3C//DTD SVG 1.1//EN" "http://www.w3.org/Graphics/SVG/1.1/DTD/svg11.dtd">
<svg version="1.1" id="Layer_1" xmlns="http://www.w3.org/2000/svg" xmlns:xlink="http://www.w3.org/1999/xlink" x="0px" y="0px"
	 width="792px" height="612px" viewBox="0 0 792 612" enable-background="new 0 0 792 612" xml:space="preserve">
<g>
	<rect x="109.68" y="262.868" fill="#58595B" width="189.664" height="23.083"/>
	<rect x="116.99" y="262.868" fill="#6D6E71" width="182.354" height="23.083"/>
	<rect x="164.038" y="210.455" fill="#58595B" width="80.655" height="52.413"/>
	<rect x="171.303" y="210.455" fill="#6D6E71" width="78.209" height="62.46"/>
	<path fill="#6D6E71" d="M390.52,233.274c0,7.494-5.158,13.571-11.518,13.571H18.052c-6.362,0-11.52-6.077-11.52-13.571V20.628
		c0-7.493,5.158-13.572,11.52-13.572h360.95c6.36,0,11.518,6.079,11.518,13.572V233.274z"/>
	<path fill="#808285" d="M397.581,233.274c0,7.494-5.157,13.571-11.521,13.571H25.113c-6.362,0-11.52-6.077-11.52-13.571V20.628
		c0-7.495,5.158-13.572,11.52-13.572h360.948c6.363,0,11.521,6.077,11.521,13.572V233.274z"/>
	<rect x="22.359" y="17.825" width="366.536" height="214.846"/>
	<rect x="317.273" y="236.661" fill="#6D6E71" width="27.157" height="5.974"/>
	<rect x="347.146" y="236.661" fill="#6D6E71" width="27.156" height="5.974"/>
	<rect x="287.423" y="236.661" fill="#6D6E71" width="27.156" height="5.974"/>
	<circle fill="#BE1E2D" cx="379.852" cy="239.648" r="3"/>
</g>
</svg>
